<svg version="1.2" xmlns="http://www.w3.org/2000/svg" viewBox="0 0 20 22" width="20" height="22">
	<title>notification-icon-svg</title>
	<style>
		.s0 { fill: #73ff69 } 
	</style>
	<path id="Layer" fill-rule="evenodd" class="s0" d="m9.9 13c-2 0-3.9 0.8-5.3 2.2-1.4 1.4-2.2 3.2-2.2 5.2-0.1 0.1-0.1 0.2-0.2 0.2h-1.6q0 0 0 0-0.1-0.1-0.1-0.1 0 0 0-0.1-0.1 0-0.1 0c0.1-1.2 0.3-2.4 0.8-3.5 0.5-1.1 1.1-2.1 2-3q1.3-1.3 3-2 0 0 0 0c-1.5-1.2-2.6-3-2.6-5.1 0-3.4 2.8-6.2 6.3-6.2 3.4 0 6.2 2.8 6.2 6.2 0 3.4-2.8 6.2-6.2 6.2zm4.3-6.2c0-2.4-2-4.3-4.3-4.3-2.4 0-4.4 1.9-4.4 4.3 0 2.4 2 4.3 4.4 4.3 2.3 0 4.3-1.9 4.3-4.3zm-2.5 9.1q0-0.3 0.2-0.5l1.7-2.2q0.1-0.2 0.3-0.2h1.8c0.1 0 0.2 0.1 0.2 0.2q0 0.1 0 0.2l-1.2 1.5h4.4c0.1 0 0.2 0.1 0.2 0.2v1.4c0 0.1-0.1 0.2-0.2 0.2h-6.6c-0.4 0-0.8-0.4-0.8-0.8zm7.6 3.2q0 0.3-0.1 0.5l-1.8 2.2q-0.1 0.1-0.3 0.1h-1.8c-0.1 0-0.2-0.1-0.2-0.2q0 0 0-0.1l1.2-1.5h-4.4c-0.1 0-0.2-0.1-0.2-0.2v-1.4c0-0.1 0.1-0.2 0.2-0.2h6.6c0.5 0 0.8 0.3 0.8 0.8z"/>
</svg>